<?xml version="1.0" encoding="UTF-8"?>
<!DOCTYPE svg PUBLIC "-//W3C//DTD SVG 1.1//EN" "http://www.w3.org/Graphics/SVG/1.1/DTD/svg11.dtd">
<!-- Creator: CorelDRAW 2020 (64-Bit) -->
<svg xmlns="http://www.w3.org/2000/svg" xml:space="preserve" width="11.9735in" height="11.9735in" version="1.1" style="shape-rendering:geometricPrecision; text-rendering:geometricPrecision; image-rendering:optimizeQuality; fill-rule:evenodd; clip-rule:evenodd"
viewBox="0 0 11849.76 11849.76"
 xmlns:xlink="http://www.w3.org/1999/xlink"
 xmlns:xodm="http://www.corel.com/coreldraw/odm/2003">
 <defs>
  <style type="text/css">
   <![CDATA[
    .fil3 {fill:red}
    .fil1 {fill:#FFD500}
    .fil2 {fill:red;fill-rule:nonzero}
    .fil0 {fill:url(#id0)}
   ]]>
  </style>
  <linearGradient id="id0" gradientUnits="userSpaceOnUse" x1="5827.91" y1="2461.08" x2="5827.91" y2="9404.75">
   <stop offset="0" style="stop-opacity:1; stop-color:red"/>
   <stop offset="0.658824" style="stop-opacity:1; stop-color:#FF0500"/>
   <stop offset="1" style="stop-opacity:1; stop-color:#FFD500"/>
  </linearGradient>
 </defs>
 <g id="Layer_x0020_1">
  <metadata id="CorelCorpID_0Corel-Layer"/>
  <g id="_2662486531408">
   <path class="fil0" d="M5912.21 3362.65c59.82,-325.07 222.96,-617.66 384.16,-901.56 -272.71,325.79 -480.55,722.12 -512.39,1151.77 -18.87,215.08 13.4,429.41 45.67,641.61 1.47,10.71 3.12,21.25 4.77,32.03 32.83,217.46 58.19,436.81 56.03,656.9 -3.12,69.82 -11.02,145.45 -54.31,203.07 -29.22,41.4 -87.56,51.94 -132.03,31.37 -87.32,-36.63 -146.91,-115.32 -199.02,-190.88 -125.11,-192.84 -146.91,-433.7 -119.85,-657.41 42.33,-336.82 170.8,-654.47 298.73,-966.41 -212.63,371.47 -391.57,776.75 -420.04,1208.98 -17.7,310.72 35.39,638.48 213.17,900.15 62.4,99.08 145.62,186.35 189.4,296.89 74.66,183.95 65.77,389.17 28.97,580.78 -16.54,93.58 -44.04,185.19 -71.54,276.81 -46.42,154.75 -92.84,309.08 -85.84,472.95 -1.48,252.61 119.1,481.52 244.95,692.73 12.91,25.12 27.25,49.78 41.57,74.9 50.03,86.59 100.98,174.82 100.01,277.71 0.97,83.46 -55.73,167.19 -139.45,185.62 -97.61,28.22 -200.74,-16.47 -270.3,-85.37 -105.77,-101.9 -153.84,-248.32 -173.19,-390.41 -21.08,-150.69 -5.26,-301.64 10.29,-452.12 5.19,-50.7 10.47,-101.24 14.32,-151.94 37.79,-425.79 61.25,-861.13 -35.39,-1281.24 -61.97,-271.22 -185.19,-529.35 -369.33,-738.66 72.19,172.2 148.07,343.24 202.09,522.44 63.62,208.81 100.25,433.02 55.97,649.49 -16.23,61.92 -41.33,138.72 -109.07,159.77 -68.65,13.42 -117.21,-54.07 -141.58,-108.82 -200.5,-479.18 -264.12,-1018.09 -159.84,-1528.08 49.3,-253.6 139.69,-497.82 251.95,-730.09 -194.75,223.64 -329.89,496.09 -402.91,782.93 -97.12,376.26 -87.75,772.65 -23.38,1153.75 40.9,254.5 116.97,501.61 196.82,746.07 130.63,407.42 217.94,837.24 175.88,1266.17 -12.5,89.95 -30.63,187.32 -95.48,255.25 -46.42,50.95 -129.15,47.58 -179.18,3.86 -115.99,-91.19 -162.9,-241.17 -191.39,-380.11 -41.38,-236.38 -25.59,-474.6 -9.79,-712.89 7.9,-120.58 16.04,-241.15 16.54,-361.43 5.94,-273.42 -37.35,-563.15 -205.77,-787.29 45.01,236.33 65.77,479.13 42.13,719.55 -17.27,201.92 -75.13,397.33 -102.63,597.83 -51.19,348.99 -61.97,712.82 39.01,1054.22 73.68,251.88 217.41,483.92 415.99,655.93 740.4,274.55 1527.98,299.39 2376.81,-0.25 172.03,-213.41 312.88,-453.1 402.59,-712.64 140.17,-395.91 162.71,-826.97 104.78,-1241.05 -103.31,-359.54 -268.84,-696.85 -435.11,-1030.54 -83.29,-161.91 -135.16,-339.44 -154.57,-520.29 -36.8,-322.67 9.79,-646.8 62.7,-964.77 -76.78,196.89 -137.78,401.19 -164.35,611.48 -39.93,303.82 -3.56,614.55 88.74,905.68 121.55,380.35 243.79,766.4 267,1167.81 17.69,264.55 -22.05,535.84 -133.27,777.69 -42.81,84.94 -116.48,178.45 -222.48,170.8 -100.01,-7.91 -153.35,-112.69 -172.44,-199.96 -54.33,-290.63 -19.67,-592.54 67.91,-873.39 96.39,-318.63 138.04,-663.59 55.72,-989.87 -26.51,-114.33 -80.1,-219.85 -109.8,-333.02 -48.81,-175.57 -57.87,-361.43 -34.18,-541.77 30.38,-244.03 121.01,-473.94 193.28,-706.88 90.87,-294.26 109.07,-614.53 24.61,-912.17 -83.7,-305.93 -260.02,-576.5 -456.65,-821.69 126.08,248.57 266.5,495.92 323.89,771.73 45.5,199.27 33,409.74 -29.89,603.99 -27.24,80.84 -52.84,168.18 -116.97,228.48 -35.39,-15.31 -48.31,-52.41 -54.8,-87.32 -48.99,-250.47 -18.87,-508.59 33.99,-755.69 -88.98,168.66 -143.78,354.51 -166.75,543.73 -35.88,296.41 -9.3,595.85 25.85,891.1 48.8,396.83 120.58,790.85 153.58,1189.56 3.37,85.43 3.12,177.29 -39.68,253.6 -12.92,25.83 -45.93,37.77 -68.9,16.72 -57.68,-50.47 -78.74,-128.42 -104.28,-198.05 -50.77,-142.81 -43.29,-294.5 -36.14,-443.99 1.41,-27.98 2.64,-56.21 3.56,-83.95 12.43,-234.18 -8.58,-470.57 -70.06,-697.09 -34.72,-128.42 -81.57,-253.09 -128.71,-377.23 13.64,94.73 34.72,188.48 47.82,283.23 42.86,284.64 47.15,576.01 -1.89,859.99 -5.76,39.01 -14.09,77.7 -22.48,116.46 -15.55,71.78 -31.11,143.8 -29.65,217.72 1.67,199.75 80.11,388.01 167.19,564.07 121.49,218.62 160.52,488.02 83.97,727.95 -17.2,60.74 -71.78,131.77 -143.54,101.9 -88.01,-37.11 -158.32,-107.9 -219.54,-179.42 -180.42,-238.72 -200.01,-554.28 -187.1,-842.54 -1.89,-82.98 22.48,-160.99 47.09,-239.19 12.26,-38.76 24.44,-77.28 33.26,-116.73 87.32,-316.24 129.45,-648.76 86.16,-976.03 -40.65,-273.86 -32.57,-554.69 23.88,-825.73 9.37,-38.76 19.17,-77.54 28.97,-116.48 67.91,-270.8 137.05,-545.7 102.87,-826.55 -15.31,-162.64 -68.47,-318.12 -114.38,-473.87 44.51,250.23 87.8,509.09 28.96,760.71 -18.68,70.13 -33.75,148.57 -87.58,200.45 -54.73,42.86 -99.94,-32.27 -116.71,-76.73 -73.93,-199.28 -74.66,-419.62 -38.03,-626.78zm2062.25 3484.68c-11.73,160.17 -33.92,292.3 -96.79,437.94 114.52,-171.76 193.98,-374.17 186.67,-583.38 -4.29,-200.66 -90.96,-429.49 -166.64,-614.17 11.41,118.69 -84.59,276.13 25.29,458.87 46.23,92.35 58.22,198.74 51.47,300.74zm-221.29 -1933.02c-27.87,274.99 -144.05,529.9 -259.21,777.44 205.27,-290 351.69,-634.4 349.16,-994.67 2.25,-345.43 -135.87,-743.26 -257.19,-1064.61 -74.25,341.8 -190.58,782.1 -120.57,1123.79 23.76,134.52 78.58,260.53 127.39,387.24 -54.03,-205.56 -107.62,-418.39 -75.6,-632.1 10.82,-59.72 18.08,-126.12 59.43,-173 42.72,-39.43 85.48,20.14 102.47,56.06 75.11,161.1 90.62,344.71 74.1,519.85zm-2503.97 -1117.86c-30.29,157.72 -43.2,291.07 -20.33,448.05 -65.95,-195.62 -90.09,-411.72 -28.67,-611.85 56.29,-192.66 199.44,-391.1 320.51,-549.77 -41.86,111.65 9.93,288.62 -143.66,436.54 -68.64,77.17 -107.86,176.78 -127.85,277.03zm-1568.19 2461.33c27.87,274.99 144.05,529.9 259.21,777.45 -205.27,-290 -351.69,-634.4 -349.16,-994.67 -2.26,-345.43 135.86,-743.27 257.18,-1064.61 74.25,341.8 190.58,782.1 120.57,1123.79 -23.77,134.52 -78.59,260.52 -127.39,387.23 54.03,-205.56 107.62,-418.39 75.6,-632.1 -10.82,-59.72 -18.08,-126.12 -59.44,-173 -42.72,-39.43 -85.48,20.14 -102.47,56.06 -75.1,161.1 -90.62,344.71 -74.1,519.85z"/>
   <g>
    <path class="fil1" d="M4680.51 2974.15c-382.51,161.72 -721.29,390.22 -1016.2,685.13 -294.93,294.93 -523.41,633.71 -685.15,1016.2 -167.42,396.1 -251.39,810.93 -251.39,1244.38 0,433.68 83.97,848.46 251.39,1244.37 161.74,382.51 390.22,721.27 685.15,1016.2 141.39,141.41 292.78,267.44 454.27,378.22l-6.49 -22.96 -1.91 -6.93 -15.8 -65.34 -1.41 -7.41 -13.42 -66.02 -1.41 -7.17 -2.86 -18.42c-111.27,-84.45 -216.97,-176.8 -317.46,-277.24 -282.99,-282.99 -501.87,-607.6 -656.85,-974.36 -160.52,-379.63 -240.93,-777.18 -240.93,-1192.94 0,-415.75 80.41,-813.32 240.93,-1192.93 154.98,-366.52 373.86,-691.39 656.85,-974.14 282.73,-282.74 607.36,-501.85 974.12,-656.85 333.7,-141.15 681.27,-220.1 1042.95,-237.3l87.09 -135.16c-410.73,7.66 -804.75,91.38 -1181.48,250.67zm0 0z"/>
    <path class="fil1" d="M7169.24 2974.15c382.51,161.72 721.29,390.22 1016.2,685.13 294.93,294.93 523.41,633.71 685.15,1016.2 167.42,396.1 251.39,810.93 251.39,1244.38 0,433.68 -83.97,848.46 -251.39,1244.37 -161.74,382.51 -390.22,721.27 -685.15,1016.2 -152.84,153.11 -317.64,288.25 -494.2,405.21l10.54 -28.22 5.69 -16.47 21.56 -63.86 1.89 -5.76 19.6 -64.37 1.72 -5.94 6.67 -24.68c116.72,-87.51 227.75,-184.2 333.02,-289.17 282.99,-282.99 501.86,-607.6 656.85,-974.36 160.52,-379.63 240.92,-777.18 240.92,-1192.94 0,-415.75 -80.4,-813.32 -240.92,-1192.93 -154.98,-366.52 -373.86,-691.39 -656.85,-974.14 -282.73,-282.74 -607.36,-501.85 -974.12,-656.85 -116.48,-49.3 -234.85,-91.19 -354.94,-125.11l-74.65 -156.72c163.38,40.19 323.64,93.52 481.02,160.03zm0 0z"/>
   </g>
   <path class="fil2" d="M2008.22 2528.26l-243.31 337.31 122.22 87.99 41.64 -57.61 324.63 234.18c58.6,42.37 73.92,105.5 29.39,167.23 -44.94,62.41 -109.8,67.67 -168.4,25.36l-324.56 -234.19 41.57 -57.68 -122.22 -87.99 -243.25 337.23 122.24 88.06 40.9 -56.7 316.68 228.48c154.32,111.45 353.1,58.6 490.64,-132.1 136.88,-189.41 124.38,-394.68 -30.13,-506.14l-316.72 -228.48 40.9 -56.64 -122.22 -88.31zm7764.6 960.54l-61.04 41.85c-0.49,0.49 -0.97,0.73 -1.72,0.97 -0.48,0.5 -1.16,0.75 -1.65,0.99 -0.73,0.19 -1.23,0.44 -1.89,0.68 -0.75,0.25 -1.23,0.25 -1.96,0.49 -0.68,0.24 -1.16,0.24 -1.91,0.24 -0.66,0.25 -1.41,0.25 -1.89,0.25 -0.73,0 -1.41,0 -2.14,-0.25 -0.5,0 -1.24,0 -1.91,-0.24 -0.49,0 -1.22,-0.24 -1.97,-0.24 -0.48,-0.25 -1.16,-0.49 -1.89,-0.73 -0.49,-0.19 -1.16,-0.43 -1.65,-0.92 -0.75,-0.26 -1.24,-0.5 -1.72,-0.99 -0.68,-0.25 -1.16,-0.73 -1.65,-1.16 -0.5,-0.24 -0.99,-0.73 -1.41,-1.22 -0.5,-0.5 -0.99,-0.99 -1.48,-1.43 -0.25,-0.48 -0.73,-0.97 -1.16,-1.7l-77.1 -112.28c-0.49,-0.49 -0.73,-1.16 -0.99,-1.65 -0.48,-0.5 -0.73,-1.23 -0.9,-1.67 -0.26,-0.73 -0.5,-1.22 -0.74,-1.96 -0.25,-0.66 -0.49,-1.16 -0.49,-1.89 -0.24,-0.73 -0.24,-1.16 -0.24,-1.9 -0.25,-0.74 -0.25,-1.47 -0.25,-1.91 0,-0.73 0,-1.46 0,-2.21 0.25,-0.42 0.25,-1.16 0.25,-1.89 0.24,-0.49 0.48,-1.16 0.48,-1.89 0.25,-0.5 0.49,-1.24 0.73,-1.91 0.26,-0.49 0.43,-1.22 0.68,-1.72 0.48,-0.66 0.75,-1.16 1.23,-1.65 0.25,-0.73 0.73,-1.21 0.97,-1.65 0.43,-0.49 0.92,-0.99 1.41,-1.48 0.5,-0.49 0.99,-0.92 1.41,-1.41 0.5,-0.25 0.99,-0.73 1.48,-1.22l173.08 -118.72c0.49,-0.49 1.22,-0.73 1.65,-1.22 0.73,-0.24 1.22,-0.5 1.96,-0.75 0.42,-0.17 1.16,-0.42 1.65,-0.66 0.73,-0.26 1.41,-0.5 1.89,-0.5 0.74,-0.25 1.48,-0.25 1.96,-0.49 0.68,0 1.41,0 2.15,0 0.42,0 1.17,0 1.9,0 0.72,0 1.16,0.25 1.89,0.25 0.75,0.25 1.24,0.25 1.91,0.49 0.73,0.26 1.22,0.5 1.96,0.75 0.42,0.17 1.16,0.42 1.65,0.68 0.73,0.48 1.22,0.73 1.65,1.22 0.75,0.25 1.23,0.73 1.72,0.92 0.49,0.49 0.92,0.99 1.41,1.48 0.49,0.49 0.99,0.97 1.48,1.41 0.42,0.48 0.68,0.97 1.16,1.47l110.13 160.38 97.2 -66.55 -110.12 -160.4c-0.49,-0.73 -0.73,-1.22 -1.24,-1.7 -0.18,-0.68 -0.42,-1.16 -0.68,-1.91 -0.49,-0.49 -0.49,-1.16 -0.73,-1.89 -0.25,-0.48 -0.49,-1.23 -0.49,-1.65 -0.25,-0.75 -0.25,-1.48 -0.49,-2.16 0,-0.48 0,-1.21 0,-1.96 0,-0.68 0,-1.16 0,-1.89 0,-0.73 0.24,-1.41 0.24,-1.89 0.25,-0.74 0.25,-1.48 0.49,-1.96 0.25,-0.68 0.49,-1.16 0.73,-1.91 0.25,-0.68 0.51,-1.16 0.75,-1.89 0.18,-0.49 0.68,-0.99 0.92,-1.65 0.49,-0.51 0.73,-0.99 1.22,-1.48 0.49,-0.49 0.92,-1.16 1.41,-1.65 0.24,-0.49 0.75,-0.75 1.48,-1.24 0.43,-0.42 0.92,-0.92 1.41,-1.16l148.18 -101.73c0.51,-0.49 1.24,-0.73 1.67,-1.22 0.49,-0.26 1.22,-0.5 1.7,-0.74 0.68,-0.18 1.16,-0.44 1.91,-0.68 0.73,-0.25 1.22,-0.49 1.89,-0.49 0.73,-0.25 1.24,-0.25 1.9,-0.49 0.74,0 1.48,0 1.96,0 0.68,0 1.41,0 2.15,0 0.49,0 1.16,0.24 1.89,0.24 0.73,0.25 1.24,0.25 1.89,0.49 0.5,0.25 1.24,0.49 1.96,0.75 0.44,0.18 1.16,0.42 1.67,0.66 0.73,0.5 1.22,0.74 1.65,0.99 0.73,0.49 1.22,0.92 1.72,1.16 0.42,0.48 0.92,0.97 1.41,1.48 0.48,0.48 0.97,0.9 1.46,1.4 0.43,0.49 0.68,0.97 1.16,1.46l74.48 108.42c0.24,0.49 0.73,1.24 0.97,1.72 0.19,0.42 0.68,1.16 0.92,1.65 0.24,0.73 0.49,1.41 0.73,1.9 0,0.74 0.26,1.23 0.5,1.91 0,0.73 0.25,1.21 0.25,1.96 0,0.66 0.17,1.41 0.17,1.89 0,0.73 0,1.41 -0.17,2.14 0,0.5 0,1.23 -0.25,1.91 0,0.73 -0.24,1.22 -0.5,1.96 0,0.68 -0.24,1.16 -0.49,1.89 -0.24,0.48 -0.73,1.16 -0.97,1.65 -0.19,0.75 -0.44,1.23 -0.92,1.72 -0.24,0.68 -0.73,1.16 -1.23,1.65 -0.49,0.5 -0.68,0.92 -1.16,1.41 -0.49,0.51 -0.97,0.99 -1.46,1.48 -0.44,0.49 -1.16,0.68 -1.67,1.16l-49.07 33.77 81.88 118.95 154.68 -106.51 -352.89 -513.51 -91.26 62.5 29.72 43.09c0.25,0.49 0.73,1.16 0.92,1.65 0.25,0.74 0.73,1.23 0.97,1.96 0.25,0.44 0.5,1.16 0.75,1.67 0,0.73 0.24,1.41 0.48,1.89 0,0.73 0.25,1.48 0.25,1.89 0,0.75 0,1.48 0.19,2.15 0,0.49 -0.19,1.22 -0.19,1.96 0,0.68 0,1.16 -0.25,1.89 0,0.73 -0.24,1.23 -0.48,1.89 -0.25,0.75 -0.25,1.24 -0.5,1.96 -0.25,0.43 -0.73,1.16 -0.97,1.67 -0.25,0.73 -0.68,1.16 -0.92,1.65 -0.49,0.72 -0.73,1.21 -1.22,1.72 -0.5,0.42 -0.68,0.92 -1.16,1.41 -0.5,0.49 -0.99,0.97 -1.47,1.41 -0.49,0.49 -1.16,0.73 -1.65,1.22l-447.46 307.42c-0.48,0.42 -0.97,0.68 -1.65,0.92 -0.48,0.49 -1.23,0.73 -1.72,0.97 -0.67,0.24 -1.16,0.49 -1.89,0.73 -0.73,0.19 -1.16,0.43 -1.89,0.43 -0.75,0.25 -1.24,0.25 -1.91,0.25 -0.73,0.25 -1.22,0.25 -1.96,0.25 -0.68,0 -1.41,0 -1.89,0 -0.73,-0.25 -1.41,-0.25 -2.15,-0.49 -0.49,0 -1.22,-0.24 -1.89,-0.24 -0.49,-0.19 -1.22,-0.43 -1.72,-0.68 -0.66,-0.24 -1.41,-0.49 -1.9,-0.73 -0.48,-0.49 -1.16,-0.73 -1.65,-1.24 -0.5,-0.17 -1.24,-0.66 -1.67,-0.92 -0.49,-0.48 -0.97,-0.97 -1.46,-1.46 -0.49,-0.44 -0.99,-0.92 -1.41,-1.41 -0.24,-0.51 -0.74,-0.99 -1.23,-1.67l-29.41 -42.89 -91.26 62.5 355.02 516.64 166.63 -114.47 -80.88 -117.98zm26.53 -972.68l-271.67 -259.79 -76.37 79.74 36.83 35.43c0.49,0.48 0.99,0.97 1.48,1.46 0.44,0.44 0.68,0.92 1.16,1.41 0.24,0.75 0.73,1.24 0.97,1.67 0.5,0.73 0.74,1.22 0.92,1.96 0.24,0.42 0.49,1.16 0.74,1.65 0.25,0.73 0.25,1.41 0.49,1.89 0.24,0.75 0.24,1.48 0.24,1.96 0.24,0.68 0.24,1.41 0.24,2.15 0,0.42 0,1.16 0,1.89 0,0.73 -0.24,1.16 -0.24,1.89 -0.24,0.75 -0.24,1.24 -0.49,1.91 -0.25,0.73 -0.5,1.22 -0.75,1.96 -0.24,0.42 -0.42,1.16 -0.66,1.65 -0.26,0.73 -0.75,1.22 -0.99,1.89 -0.25,0.49 -0.73,0.99 -1.22,1.48 -0.19,0.68 -0.68,1.16 -1.18,1.65l-276.76 289.46c-29.17,30.4 -61.53,46.63 -96.46,48.59 -36.64,1.91 -70.61,-12 -101.74,-41.67 -31.62,-30.14 -47.18,-63.67 -46.94,-100.33 0.25,-35.42 15.08,-68.21 44.32,-98.85l276.76 -289.46c0.44,-0.49 0.92,-0.9 1.41,-1.16 0.49,-0.49 0.99,-0.97 1.41,-1.22 0.74,-0.49 1.23,-0.68 1.72,-1.16 0.73,-0.24 1.16,-0.49 1.89,-0.74 0.5,-0.49 1.24,-0.73 1.91,-0.73 0.49,-0.24 1.22,-0.48 1.72,-0.68 0.66,0 1.41,-0.24 2.14,-0.24 0.49,0 1.16,0 1.89,-0.25 0.75,0 1.24,0 1.91,0.25 0.73,0 1.46,0 1.96,0.24 0.66,0 1.41,0.19 1.89,0.44 0.73,0 1.41,0.24 1.9,0.48 0.74,0.25 1.23,0.49 1.91,0.75 0.49,0.49 0.97,0.73 1.71,1.16 0.43,0.24 0.92,0.73 1.67,0.97 0.49,0.49 0.97,0.99 1.41,1.41l36.9 35.25 76.36 -79.98 -271.74 -259.74 -76.37 79.91 35.93 34.52c0.49,0.48 0.97,0.97 1.46,1.41 0.5,0.48 0.92,0.97 1.16,1.46 0.5,0.5 0.75,1.16 1.23,1.67 0.25,0.73 0.49,1.22 0.73,1.65 0.19,0.73 0.44,1.47 0.68,1.96 0.24,0.67 0.49,1.16 0.49,1.89 0.24,0.73 0.24,1.41 0.5,1.9 0,0.74 0,1.48 0,1.96 0,0.68 0,1.43 0,2.15 0,0.44 0,1.16 -0.26,1.89 0,0.75 -0.24,1.16 -0.49,1.91 0,0.73 -0.24,1.22 -0.48,1.89 -0.25,0.49 -0.44,1.22 -0.92,1.72 -0.25,0.68 -0.49,1.16 -0.97,1.65 -0.26,0.73 -0.74,1.23 -1.16,1.65 -0.26,0.48 -0.74,0.99 -1.23,1.47l-270.02 282.46c-61.53,64.42 -86.92,140.04 -76.13,226.71 10.98,88.38 57.19,171.66 138.56,249.49 81.22,77.53 166.15,119.94 254.76,126.87 87.09,6.67 161.32,-22.01 222.84,-86.41l270.28 -282.28c0.49,-0.43 0.97,-0.92 1.48,-1.43 0.49,-0.49 0.97,-0.97 1.41,-1.22 0.49,-0.44 1.22,-0.67 1.7,-1.16 0.68,-0.25 1.18,-0.49 1.91,-0.73 0.48,-0.26 1.16,-0.5 1.65,-0.68 0.73,-0.25 1.48,-0.49 1.96,-0.49 0.68,-0.26 1.41,-0.26 1.89,-0.5 0.74,0 1.41,0 2.15,0 0.49,0 1.16,0 1.89,0 0.74,0 1.23,0 1.91,0.25 0.73,0 1.22,0.26 1.95,0.5 0.68,0 1.16,0.25 1.91,0.42 0.49,0.24 1.16,0.5 1.65,0.99 0.73,0.25 1.24,0.49 1.97,0.97 0.43,0.25 0.92,0.68 1.4,1.16 0.49,0.25 0.99,0.75 1.41,1.23l36.17 34.44 76.35 -79.91zm-1097.37 -466.38c60.78,-104.37 75.19,-210.4 43.08,-318.14 -32.8,-109.88 -107.25,-198.68 -223.58,-266.47 -116.8,-67.96 -231.03,-89.3 -342.83,-63.67 -109.63,24.88 -195.12,89.78 -255.93,194.15 -63.19,108.47 -79.48,216.89 -49.09,325.61 31.39,111.05 106.33,201.09 224.62,270.02 67.96,39.47 138.08,61.29 211.13,65.33 0.92,0.25 1.89,0.25 3.13,0.49 0.92,0.25 1.89,0.51 2.81,0.99 0.99,0.24 1.96,0.67 2.88,1.16 0.73,0.49 1.72,1.22 2.38,1.89 0.99,0.49 1.72,1.24 2.47,1.96 0.66,0.92 1.16,1.65 1.89,2.64 0.49,0.68 0.92,1.65 1.41,2.62 0.49,0.92 0.99,1.91 1.24,2.83l35.18 122.56 128.81 -42.84 -31.13 -90.7c-0.25,-0.73 -0.49,-1.22 -0.49,-1.89 -0.24,-0.49 -0.5,-1.24 -0.5,-1.96 0,-0.68 -0.24,-1.16 -0.24,-1.89 0,-0.74 0,-1.43 0,-1.91 0.24,-0.73 0.24,-1.46 0.24,-2.14 0.26,-0.49 0.26,-1.23 0.5,-1.96 0.24,-0.43 0.49,-1.16 0.73,-1.65 0,-0.75 0.43,-1.43 0.68,-1.91 0.24,-0.73 0.49,-1.22 0.97,-1.72 0.25,-0.66 0.75,-1.16 0.99,-1.65 0.42,-0.49 0.92,-0.98 1.41,-1.41 0.49,-0.48 0.97,-0.97 1.41,-1.48 0.48,-0.48 0.97,-0.9 1.47,-1.16 0.49,-0.48 1.16,-0.73 1.65,-1.22 0.49,-0.24 1.22,-0.49 1.72,-0.92 0.66,-0.24 1.16,-0.49 1.9,-0.73l0.24 0c100.27,-33.53 176.69,-95.31 228.85,-184.84zm-521.17 -2.15c-52.41,-30.38 -79.98,-77.59 -82.8,-141.26 -2.64,-59.57 17.21,-125.88 59.57,-198.68 39.52,-67.48 85.25,-113.44 136.97,-137.42 55.04,-25.61 108.66,-23.23 160.62,7.17 53.15,30.89 82.38,76.85 87.83,137.42 5.02,57.49 -12.2,119.92 -51.67,187.71 -25.19,43.08 -48.61,75.87 -70.67,98.36 -0.49,0.49 -0.92,0.99 -1.41,1.48 -0.49,0.48 -1.22,0.68 -1.72,1.16 -0.42,0.48 -1.16,0.73 -1.65,0.97 -0.48,0.51 -1.16,0.75 -1.65,0.99 -0.73,0.18 -1.24,0.42 -1.89,0.68 -0.75,0.25 -1.24,0.25 -1.96,0.49 -0.68,0 -1.16,0.24 -1.91,0.24 -0.73,0 -1.41,0.24 -1.89,0.24 -0.73,0 -1.48,0 -2.15,-0.24 -0.49,0 -1.22,0 -1.94,-0.24 -0.68,0 -1.16,-0.25 -1.91,-0.49 -0.49,0 -1.16,-0.26 -1.89,-0.5 -0.49,-0.18 -1.24,-0.42 -1.65,-0.92 -0.75,-0.25 -1.24,-0.49 -1.72,-0.97 -0.75,-0.24 -1.16,-0.73 -1.65,-1.16 -0.5,-0.24 -0.99,-0.73 -1.48,-1.23 -2.4,-2.14 -3.8,-4.78 -5.02,-7.91l-30.4 -87.82 -108.18 35.66 30.4 107.02c0.24,0.49 0.48,1.16 0.48,1.89 0.19,0.49 0.19,1.24 0.19,1.9 0.24,0.74 0.24,1.23 0.24,1.91 0,0.73 -0.24,1.46 -0.24,1.96 0,0.66 -0.19,1.41 -0.19,1.89 -0.24,0.73 -0.48,1.41 -0.48,1.89 -0.25,0.74 -0.49,1.48 -0.73,1.96 -0.24,0.68 -0.74,1.16 -0.99,1.67 -0.18,0.73 -0.66,1.16 -0.92,1.65 -0.49,0.73 -0.97,1.22 -1.22,1.72 -0.48,0.42 -0.92,0.9 -1.41,1.41 -0.5,0.48 -0.99,0.97 -1.48,1.16 -0.43,0.48 -1.16,0.97 -1.65,1.22 -0.49,0.48 -1.23,0.74 -1.65,0.99 -0.75,0.42 -1.24,0.68 -1.96,0.92 -0.44,0.24 -1.16,0.48 -1.67,0.48 -2.63,0.73 -5.27,0.97 -7.91,0.73 -26.28,-2.88 -51.91,-11.52 -76.59,-26.11zm-613.61 -621.01c127.43,-31.55 211.2,-100.98 251.66,-208.48 15.06,-40.44 15.57,-78.51 1.65,-114.42 -13.6,-34.52 -36.59,-57.75 -69.44,-70.18 -32.3,-11.95 -62.46,-11.71 -90.46,0.74 -28.24,12.44 -48.1,34.43 -59.88,65.81 -10.04,26.86 -10.54,53.63 -1.16,80.66 9.81,28.07 27.76,46.94 54.36,57l4.54 1.72c0.5,0.17 1.16,0.42 1.67,0.66 0.72,0.25 1.22,0.75 1.65,0.99 0.72,0.48 1.21,0.73 1.71,1.16 0.49,0.24 0.92,0.73 1.41,1.22 0.49,0.51 0.97,0.99 1.46,1.43 0.44,0.49 0.92,0.97 1.16,1.46 0.5,0.75 0.74,1.16 1.24,1.65 0.24,0.74 0.49,1.23 0.92,1.91 0.24,0.49 0.49,1.22 0.73,1.72 0,0.66 0.24,1.41 0.49,1.89 0,0.73 0.26,1.41 0.26,1.89 0.25,0.74 0.25,1.48 0.25,2.15 0,0.48 0,1.22 0,1.96 0,0.66 -0.25,1.16 -0.25,1.89 0,0.73 -0.26,1.17 -0.5,1.89 -0.24,0.75 -0.24,1.24 -0.48,1.91 -0.25,0.73 -0.73,1.46 -0.92,1.96 -24.45,48.59 -65.64,83.53 -123.56,104.62l21.51 54.77zm-706.67 -577.85l-307.18 -28.25 -10.04 109.88 51.96 5.02c0.75,0 1.48,0 1.91,0.19 0.73,0 1.46,0.25 1.97,0.49 0.67,0 1.4,0.25 1.89,0.49 0.73,0.24 1.16,0.74 1.9,0.99 0.5,0.24 0.99,0.68 1.66,0.92 0.49,0.49 0.97,0.72 1.46,1.21 0.75,0.49 1.16,0.99 1.67,1.16 0.49,0.49 0.73,0.99 1.22,1.72 0.49,0.49 0.92,0.92 1.16,1.41 0.49,0.49 0.75,1.24 0.99,1.72 0.49,0.67 0.73,1.16 0.97,1.89 0.19,0.49 0.43,1.16 0.67,1.67 0.25,0.73 0.25,1.46 0.49,1.89 0,0.73 0.24,1.48 0.24,1.96 0,0.68 0.24,1.41 0.24,2.14 0,0.49 -0.24,1.17 -0.24,1.91l-32.54 353.13c0,0.72 -0.25,1.4 -0.25,1.89 -0.24,0.73 -0.24,1.41 -0.49,1.89 -0.24,0.75 -0.5,1.48 -0.74,1.96 -0.25,0.67 -0.49,1.16 -0.68,1.91 -0.49,0.49 -0.73,0.92 -1.22,1.65 -0.24,0.49 -0.73,0.97 -0.99,1.48 -0.42,0.42 -0.9,0.9 -1.41,1.41 -0.49,0.49 -0.97,0.97 -1.41,1.41 -0.49,0.49 -0.98,0.73 -1.72,1.22 -0.49,0.24 -0.9,0.74 -1.65,0.99 -0.48,0.44 -1.22,0.68 -1.72,0.92 -0.66,0.24 -1.16,0.49 -1.89,0.73 -0.49,0 -1.16,0.24 -1.89,0.49 -0.5,0 -1.24,0.25 -1.91,0.25 -0.73,0 -1.22,0 -1.89,0 -0.73,0 -1.48,0 -1.96,0 -0.92,0 -1.65,-0.25 -2.64,-0.49 -0.66,0 -1.41,-0.24 -2.14,-0.48 -0.99,-0.25 -1.65,-0.73 -2.4,-0.97 -0.73,-0.44 -1.41,-0.92 -2.14,-1.18 -0.73,-0.48 -1.24,-0.97 -1.91,-1.65 -0.73,-0.48 -1.22,-0.97 -1.7,-1.72 -0.68,-0.49 -1.16,-1.16 -1.67,-1.89 -0.48,-0.73 -0.97,-1.22 -1.22,-1.89l-286.09 -525.29 -326.04 -29.9 -10.04 109.88 51.96 5.02c0.67,0 1.42,0 1.91,0.25 0.73,0 1.41,0.24 1.89,0.5 0.75,0 1.48,0.24 1.96,0.49 0.68,0.25 1.16,0.68 1.89,0.92 0.5,0.25 0.92,0.73 1.67,0.97 0.48,0.49 0.97,0.73 1.46,1.16 0.43,0.48 0.92,0.73 1.41,1.23 0.5,0.49 0.99,0.97 1.42,1.65 0.49,0.49 0.73,0.98 1.22,1.48 0.24,0.49 0.75,1.16 0.99,1.65 0.42,0.73 0.66,1.22 0.92,1.89 0.24,0.49 0.49,1.24 0.73,1.72 0,0.68 0.25,1.41 0.49,1.89 0,0.74 0.24,1.41 0.24,1.91 0,0.73 0,1.46 0,2.14 0,0.48 0,1.23 0,1.96l-49.82 540.54c-0.25,0.73 -0.25,1.16 -0.49,1.89 0,0.74 -0.24,1.23 -0.49,1.91 0,0.73 -0.19,1.21 -0.43,1.96 -0.25,0.42 -0.73,1.16 -0.97,1.65 -0.26,0.73 -0.5,1.22 -0.99,1.65 -0.43,0.75 -0.68,1.24 -1.16,1.72 -0.49,0.43 -0.73,0.92 -1.22,1.41 -0.44,0.49 -0.92,0.99 -1.42,1.48 -0.73,0.42 -1.22,0.68 -1.66,1.16 -0.48,0.24 -1.21,0.73 -1.72,0.97 -0.66,0.24 -1.16,0.44 -1.89,0.92 -0.48,0.24 -1.23,0.49 -1.65,0.49 -0.75,0.24 -1.48,0.5 -1.96,0.5 -0.68,0.24 -1.41,0.24 -1.91,0.49 -0.73,0 -1.41,0 -2.14,0 -0.49,0 -1.24,0 -1.89,0l-51.98 -4.78 -10.3 110.07 308.34 28.49 10.28 -110.13 -52.15 -4.8c-0.73,-0.24 -1.22,-0.24 -1.89,-0.42 -0.73,0 -1.23,-0.24 -1.96,-0.5 -0.67,0 -1.16,-0.24 -1.89,-0.48 -0.51,-0.25 -1.16,-0.49 -1.67,-0.97 -0.73,-0.25 -1.22,-0.49 -1.71,-0.92 -0.68,-0.24 -1.16,-0.73 -1.67,-1.23 -0.48,-0.49 -0.97,-0.73 -1.41,-1.16 -0.49,-0.49 -0.97,-0.97 -1.46,-1.46 -0.26,-0.75 -0.75,-1.16 -1.18,-1.67 -0.25,-0.49 -0.73,-1.22 -0.97,-1.71 -0.25,-0.43 -0.49,-1.16 -0.97,-1.66 -0.26,-0.73 -0.43,-1.41 -0.43,-1.89 -0.25,-0.73 -0.49,-1.24 -0.49,-1.89 -0.24,-0.75 -0.24,-1.48 -0.5,-1.96 0,-0.68 0,-1.41 0,-2.15 0,-0.49 0,-1.16 0,-1.89l32.8 -355.52c0.25,-0.73 0.25,-1.41 0.49,-1.9 0,-0.73 0.25,-1.41 0.49,-1.89 0,-0.74 0.25,-1.23 0.44,-1.96 0.24,-0.68 0.49,-1.16 0.97,-1.67 0.26,-0.73 0.51,-1.16 0.99,-1.89 0.25,-0.49 0.68,-0.97 1.17,-1.48 0.48,-0.42 0.72,-0.92 1.22,-1.41 0.5,-0.48 0.92,-0.97 1.42,-1.41 0.49,-0.49 1.22,-0.73 1.7,-1.22 0.43,-0.26 1.16,-0.74 1.67,-0.99 0.49,-0.24 1.16,-0.68 1.65,-0.92 0.73,-0.24 1.48,-0.49 1.96,-0.73 0.68,0 1.16,-0.25 1.89,-0.49 0.68,0 1.41,-0.24 1.89,-0.24 0.75,0 1.43,0 2.15,0 0.49,0 1.22,0 1.89,0 0.74,0 1.72,0.24 2.45,0.49 0.68,0 1.67,0.25 2.4,0.49 0.68,0.49 1.41,0.73 2.4,1.16 0.66,0.24 1.41,0.73 2.14,1.23 0.49,0.49 1.16,0.97 1.89,1.41 0.5,0.49 1.24,1.22 1.67,1.7 0.73,0.68 1.22,1.16 1.7,1.91 0.5,0.73 0.92,1.41 1.16,2.14l281.07 526.94 258.57 23.9 62.02 -670.78c0,-0.48 0.24,-1.16 0.24,-1.89 0.18,-0.73 0.18,-1.22 0.42,-1.89 0.26,-0.75 0.5,-1.23 0.75,-1.97 0.24,-0.43 0.48,-1.16 0.72,-1.65 0.49,-0.75 0.73,-1.16 0.92,-1.67 0.49,-0.73 0.97,-1.22 1.24,-1.7 0.49,-0.43 0.97,-0.92 1.41,-1.42 0.49,-0.49 0.97,-0.97 1.46,-1.41 0.5,-0.24 0.92,-0.73 1.43,-1.22 0.73,-0.24 1.22,-0.75 1.94,-0.99 0.43,-0.25 0.92,-0.42 1.67,-0.68 0.49,-0.24 1.16,-0.49 1.89,-0.73 0.48,-0.24 1.23,-0.49 1.89,-0.49 0.5,-0.24 1.23,-0.24 1.96,-0.48 0.68,0 1.16,0 1.91,0 0.73,0 1.41,0 1.89,0l50.99 4.77 10.06 -110.07zm-1201.02 606.36l-352.64 -638.97 -260.22 38.06 -155.6 712.94c-0.25,0.97 -0.49,1.9 -0.98,2.87 -0.26,0.99 -0.74,1.91 -1.23,2.89 -0.43,0.74 -0.92,1.65 -1.65,2.4 -0.75,0.73 -1.41,1.65 -2.15,2.14 -0.73,0.75 -1.46,1.48 -2.38,1.91 -0.75,0.73 -1.72,1.22 -2.64,1.7 -0.73,0.51 -1.72,0.68 -2.64,0.92 -1.22,0.5 -2.14,0.74 -3.12,0.74l-56.5 8.39 16.05 109.39 327.76 -47.86 -15.83 -109.4 -50.48 7.42c-0.75,0 -1.48,0 -2.21,0 -0.44,0.24 -1.16,0.24 -1.91,0 -0.73,0 -1.16,0 -1.89,0 -0.75,-0.26 -1.23,-0.26 -1.91,-0.5 -0.73,-0.25 -1.22,-0.49 -1.95,-0.49 -0.68,-0.25 -1.16,-0.49 -1.91,-0.97 -0.48,-0.25 -0.97,-0.44 -1.65,-0.92 -0.49,-0.25 -0.97,-0.49 -1.72,-0.99 -0.44,-0.49 -0.92,-0.73 -1.41,-1.16 -0.49,-0.49 -0.97,-0.97 -1.41,-1.46 -0.48,-0.5 -0.72,-0.92 -1.23,-1.66 -0.49,-0.49 -0.73,-0.97 -1.16,-1.46 -0.24,-0.68 -0.49,-1.16 -0.97,-1.91 -0.25,-0.49 -0.49,-1.17 -0.73,-1.65 -0.26,-0.73 -0.26,-1.48 -0.5,-1.89 -0.25,-0.75 -0.25,-1.48 -0.42,-1.96 -0.25,-1.89 -0.25,-3.56 0,-5.52l9.55 -76.78c0,-1.22 0.25,-2.21 0.68,-3.37 0.24,-0.97 0.72,-1.89 1.21,-2.88 0.5,-0.97 0.99,-1.89 1.41,-2.88 0.75,-0.97 1.48,-1.65 2.21,-2.62 0.68,-0.75 1.67,-1.41 2.4,-2.15 0.92,-0.49 1.89,-1.22 2.88,-1.65 0.92,-0.49 1.89,-0.97 3.06,-1.23 0.99,-0.25 2.15,-0.49 3.12,-0.73l265 -38.55c1.24,-0.17 2.21,-0.17 3.37,-0.17 0.99,0 2.16,0 3.13,0.17 1.16,0.25 2.15,0.49 3.13,0.99 1.16,0.24 2.15,0.73 3.07,1.22 0.97,0.43 1.95,1.16 2.62,1.91 0.99,0.73 1.72,1.41 2.4,2.14 0.73,0.97 1.46,1.65 2.21,2.64 0.42,0.97 0.92,1.89 1.41,2.87l31.13 71.1c0.25,0.49 0.49,1.22 0.73,1.65 0.19,0.73 0.19,1.48 0.44,1.96 0.24,0.68 0.24,1.41 0.24,2.14 0.25,0.5 0.25,1.16 0.25,1.91 0,0.73 0,1.22 0,1.89 0,0.73 -0.25,1.48 -0.25,1.97 -0.24,0.67 -0.24,1.41 -0.49,1.89 -0.19,0.74 -0.43,1.41 -0.67,1.91 -0.25,0.73 -0.49,1.22 -0.73,1.89 -0.25,0.49 -0.75,0.97 -0.99,1.72 -0.42,0.42 -0.66,0.92 -1.16,1.41 -0.48,0.73 -0.97,1.22 -1.22,1.65 -0.43,0.49 -0.92,0.99 -1.41,1.24 -0.75,0.49 -1.24,0.97 -1.67,1.16 -0.49,0.49 -1.22,0.73 -1.7,1.22 -0.5,0.24 -1.16,0.5 -1.67,0.74 -1.7,0.66 -3.37,1.16 -5.26,1.65l-51.72 7.42 16.05 109.39 391.19 -56.93 -16.07 -109.46 -60.11 8.63c-0.92,0.24 -2.15,0.24 -3.07,0.24 -0.97,0 -1.96,0 -2.88,-0.24 -1.22,0 -2.14,-0.25 -3.13,-0.73 -0.97,-0.19 -1.89,-0.68 -2.86,-0.92 -0.75,-0.49 -1.67,-0.98 -2.4,-1.73 -0.97,-0.41 -1.65,-1.16 -2.38,-1.89 -0.74,-0.73 -1.42,-1.41 -2.15,-2.15 -0.49,-0.97 -1.24,-1.65 -1.65,-2.62zm-558.8 -205.62l45.29 -271.74c0.24,-0.73 0.24,-1.23 0.41,-1.89 0.25,-0.74 0.49,-1.23 0.75,-1.91 0.25,-0.49 0.49,-1.22 0.73,-1.72 0.25,-0.72 0.73,-1.16 0.97,-1.89 0.19,-0.49 0.68,-0.97 1.16,-1.48 0.25,-0.66 0.75,-1.16 1.24,-1.65 0.44,-0.49 0.92,-0.98 1.41,-1.17 0.49,-0.49 0.99,-0.97 1.41,-1.47 0.75,-0.25 1.23,-0.73 1.72,-0.91 0.73,-0.26 1.16,-0.75 1.89,-0.99 0.51,-0.24 1.24,-0.49 1.67,-0.73 0.73,-0.24 1.46,-0.24 1.95,-0.49 0.68,-0.26 1.42,-0.26 1.91,-0.26 0.73,-0.17 1.41,-0.17 2.14,-0.17 0.51,0 1.24,0 1.91,0 0.73,0 1.22,0 1.96,0.17 1.65,0.26 3.05,0.75 4.54,1.24 1.4,0.73 2.86,1.41 4.03,2.4 1.23,0.97 2.4,2.14 3.37,3.37 1.18,1.16 1.91,2.38 2.64,3.79l123.98 245.89c0.49,0.73 0.73,1.22 0.97,1.89 0.24,0.49 0.5,1.24 0.5,1.89 0.24,0.5 0.49,1.24 0.49,1.96 0.17,0.5 0.17,1.16 0.17,1.91 0,0.49 0.25,1.16 0,1.89 0,0.73 0,1.24 0,1.9 0,0.74 -0.17,1.47 -0.42,1.96 0,0.68 -0.24,1.41 -0.5,1.91 -0.24,0.73 -0.49,1.22 -0.73,1.9 -0.25,0.48 -0.49,1.23 -0.73,1.72 -0.43,0.68 -0.68,1.16 -1.16,1.65 -0.24,0.73 -0.75,1.16 -1.24,1.65 -0.43,0.5 -0.92,0.99 -1.41,1.48 -0.49,0.44 -0.97,0.68 -1.48,1.16 -0.42,0.49 -0.92,0.73 -1.65,1.24 -0.48,0.24 -0.97,0.66 -1.64,0.92 -1.97,0.97 -3.86,1.7 -6.02,1.94l-169.28 25.82c-0.66,0 -1.41,0 -1.89,0.24 -0.73,0 -1.41,0 -2.14,0 -0.51,-0.24 -1.24,-0.24 -1.91,-0.24 -0.73,-0.19 -1.22,-0.19 -1.96,-0.44 -0.66,0 -1.16,-0.24 -1.89,-0.48 -0.48,-0.25 -1.16,-0.51 -1.89,-0.75 -0.5,-0.24 -0.99,-0.73 -1.67,-0.92 -0.48,-0.48 -0.97,-0.73 -1.7,-1.22 -0.51,-0.24 -0.92,-0.73 -1.43,-1.23 -0.49,-0.42 -0.97,-0.92 -1.46,-1.41 -0.43,-0.49 -0.92,-0.97 -1.16,-1.41 -0.49,-0.49 -0.75,-1.24 -1.24,-1.72 -0.24,-0.48 -0.68,-1.16 -0.92,-1.65 -0.25,-0.73 -0.49,-1.23 -0.73,-1.89 -0.25,-0.51 -0.49,-1.24 -0.49,-1.96 -0.24,-0.44 -0.49,-1.16 -0.49,-1.91 -0.26,-2.14 -0.26,-4.03 0,-6.18zm-607.6 273.58c-1.65,37.14 -10.96,70.67 -28,100.57 -22.74,39.78 -56.01,67.96 -100.26,84.76 -49.84,18.89 -100.08,10.54 -150.83,-25.12 -48.61,-34.26 -86.24,-86.24 -112.52,-155.36 -26.11,-68.03 -31.88,-129.32 -17.72,-183.68 14.35,-55.76 46.4,-92.85 95.72,-111.79 42.42,-15.98 83.79,-16.73 124.23,-2.14 33.1,11.95 62.02,32.78 86.48,62.5l127.36 -48.35 -97.95 -256.68 -133.84 51.01 16.54 43.08c0.24,0.73 0.49,1.22 0.73,1.9 0,0.73 0.26,1.23 0.5,1.96 0,0.68 0,1.16 0,1.89 0.18,0.75 0.18,1.41 0.18,1.91 0,0.73 -0.18,1.46 -0.18,2.14 0,0.49 -0.24,1.24 -0.24,1.96 -0.26,0.44 -0.5,1.16 -0.75,1.89 -0.24,0.5 -0.49,1.16 -0.73,1.67 -0.24,0.73 -0.49,1.22 -0.73,1.89 -0.43,0.49 -0.68,0.97 -1.16,1.72 -0.26,0.48 -0.75,0.92 -1.24,1.41 -0.43,0.49 -0.92,0.97 -1.41,1.48 -0.49,0.42 -0.99,0.9 -1.41,1.16 -0.48,0.48 -0.99,0.97 -1.72,1.22 -0.49,0.48 -0.92,0.67 -1.65,0.92 -0.5,0.24 -1.23,0.73 -1.67,0.97 -1.46,0.5 -2.62,0.74 -3.85,0.99 -1.41,0.24 -2.63,0.24 -4.05,0.24 -1.22,0 -2.63,-0.24 -3.86,-0.49 -1.16,-0.24 -2.64,-0.74 -3.81,-1.24 -68.52,-30.89 -137.45,-33.02 -206.59,-6.67 -99.41,37.8 -169.52,107.74 -210.69,209.48 -41.43,102.22 -41.68,207.08 -0.75,314.34 45.05,117.97 116.64,199.85 215,245.55 101.25,47.2 213.77,47.2 337.32,0 157.06,-59.81 246.55,-162.52 268.61,-308.32l-185.09 -38.79zm-1228.34 695.47l41.43 53.87c0.48,0.75 0.72,1.24 1.21,1.65 0.25,0.75 0.44,1.24 0.92,1.72 0.25,0.68 0.49,1.16 0.73,1.91 0.26,0.73 0.5,1.17 0.5,1.9 0.25,0.48 0.49,1.23 0.49,1.89 0.25,0.75 0.25,1.24 0.25,1.96 0,0.68 0,1.41 0,1.91 0,0.73 0,1.41 0,2.14 -0.25,0.49 -0.25,1.24 -0.49,1.89 -0.25,0.5 -0.25,1.24 -0.49,1.96 -0.26,0.43 -0.5,1.16 -0.74,1.67 -0.25,0.73 -0.73,1.16 -0.92,1.89 -0.25,0.49 -0.73,0.97 -0.97,1.48 -0.48,0.66 -0.99,1.16 -1.48,1.65 -0.18,0.48 -0.68,0.97 -1.16,1.4 -0.49,0.49 -0.97,0.73 -1.65,1.24l-119.75 91.68c-0.44,0.48 -0.92,0.73 -1.41,1.23 -0.75,0.18 -1.18,0.66 -1.91,0.92 -0.49,0.24 -1.22,0.48 -1.73,0.73 -0.65,0.24 -1.16,0.49 -1.89,0.73 -0.68,0 -1.16,0.24 -1.9,0.24 -0.74,0.19 -1.4,0.19 -1.91,0.19 -0.73,0.25 -1.46,0.25 -2.14,0.25 -0.49,-0.25 -1.23,-0.25 -1.96,-0.25 -0.48,-0.19 -1.16,-0.19 -1.89,-0.43 -0.5,0 -1.16,-0.24 -1.91,-0.49 -0.49,-0.24 -1.22,-0.49 -1.72,-0.73 -0.66,-0.24 -1.16,-0.51 -1.89,-0.99 -0.48,-0.18 -0.92,-0.68 -1.65,-0.92 -0.49,-0.48 -0.99,-0.97 -1.48,-1.21 -0.44,-0.49 -0.92,-0.92 -1.41,-1.41 -0.49,-0.5 -0.97,-0.99 -1.24,-1.48 -0.66,-0.68 -1.16,-1.65 -1.65,-2.4 -17.22,-30.38 -23.23,-68.94 -18.21,-115.14 3.13,-26.55 12.46,-68.47 28.26,-125.64 20.34,-73.73 31.38,-128.84 32.78,-165.23 2.64,-58.9 -12.2,-108.91 -43.81,-150.34 -41.12,-53.87 -95.24,-82.56 -162.29,-85.93 -69.68,-3.37 -139.05,21.53 -208.49,74.72 -63.01,48.11 -104.2,104.86 -123.31,169.69 -16.56,56.76 -14.59,113.5 5.75,170.01l163.77 -58.46c-12.51,-24.9 -19.44,-49.04 -21.09,-72.03 -2.38,-36.4 8.58,-64.16 33.53,-83.09 20.59,-15.81 42.6,-21.76 66.07,-17.96 23.47,3.86 43.57,16.8 60.54,39.03 18.2,23.73 25.87,58.17 23.47,103.65 -1.41,25.87 -8.39,69.44 -20.35,130.73 -18.21,91.68 -27.03,160.87 -26.6,207.32 0.73,77.58 20.83,141.94 59.88,192.92l37.56 49.1 471.85 -361.21 -125.22 -163.53 -122.31 93.59z"/>
   <path class="fil1" d="M5924.88 0c-803.03,0 -1571.88,155.24 -2306.5,465.97 -709.03,300.02 -1336.73,723.18 -1883.09,1269.31 -546.13,546.36 -969.3,1174.07 -1269.31,1883.09 -310.73,734.62 -465.97,1503.47 -465.97,2306.5 0,803.03 155.24,1571.88 465.97,2306.5 300.02,709.03 723.18,1336.73 1269.31,1883.09 546.36,546.13 1174.06,969.3 1883.09,1269.31 734.62,310.73 1503.47,465.97 2306.5,465.97 803.03,0 1572.12,-155.24 2306.5,-465.97 709.03,-300.02 1336.73,-723.18 1883.09,-1269.31 546.13,-546.36 969.3,-1174.07 1269.31,-1883.09 310.73,-734.62 465.97,-1503.47 465.97,-2306.5 0,-803.03 -155.24,-1571.88 -465.97,-2306.5 -300.02,-709.03 -723.18,-1336.73 -1269.31,-1883.09 -546.36,-546.13 -1174.06,-969.3 -1883.09,-1269.31 -734.62,-310.73 -1503.47,-465.97 -2306.5,-465.97zm-4149.75 7660.67c5.8,-2.96 11.28,-3.83 16.28,-2.55 5,1.28 8.98,5 12.08,11.07l134.95 264.87c9.72,19.07 16.24,38.37 19.58,57.9 3.34,19.53 4.04,38.67 1.96,57.47 -2.08,18.81 -6.65,37.16 -13.73,55.03 -7.08,17.88 -16.11,34.66 -27.01,50.14 -10.91,15.48 -23.5,29.37 -37.83,41.9 -14.33,12.52 -29.99,23.11 -46.85,31.7 -24.87,12.67 -51.44,20.64 -79.78,23.77 -28.34,3.13 -56.03,1.05 -82.99,-6.1 -26.96,-7.15 -52.02,-19.44 -75.32,-36.81 -23.3,-17.37 -42.33,-40.04 -56.97,-68.08l-63.99 -125.59 -197.3 100.53c-11.88,6.05 -21.06,2.73 -27.54,-9.99l-62.73 -123.11c-2.82,-5.52 -3.55,-10.72 -2.34,-15.52 1.21,-4.79 4.79,-8.7 10.87,-11.8l578.65 -294.83zm3295.56 2662.86c0.91,-6.45 3.49,-11.41 7.55,-14.76 4.07,-3.34 9.25,-4.5 15.69,-3.59l305.89 42.99c27.02,3.8 51.81,12.44 74.31,26.1 22.51,13.66 41.56,30.74 57,51.23 15.44,20.49 26.61,43.51 33.67,69.09 7.05,25.58 8.63,52.26 4.74,79.9 -3.24,23.04 -9.77,43.88 -19.77,62.68 -10,18.79 -22.79,35.16 -38.2,48.97 19.26,23.38 33.38,49.95 42.35,79.71 8.97,29.76 11.26,60.3 6.85,91.63 -3.93,27.94 -13.01,53.61 -27.28,77.12 -14.26,23.52 -31.79,43.45 -52.72,59.77 -20.93,16.32 -44.39,28.37 -70.36,35.99 -25.97,7.63 -52.55,9.53 -79.57,5.73l-333.07 -46.81c-6.14,-0.86 -10.82,-3.24 -14.05,-6.99 -3.23,-3.74 -4.38,-8.91 -3.44,-15.67l90.38 -643.11zm308.18 501.34c1.3,-9.21 0.9,-18.66 -1.34,-28.37 -2.24,-9.71 -5.98,-18.69 -11.26,-26.79 -5.28,-8.1 -11.99,-15 -20.09,-20.83 -8.11,-5.84 -17.3,-9.48 -27.44,-10.9l-121.62 -17.09 -21.62 153.87 121.62 17.09c10.13,1.43 19.8,0.59 29.01,-2.5 9.2,-3.09 17.55,-7.87 25.01,-14.18 7.47,-6.31 13.68,-13.74 18.5,-22.45 4.83,-8.72 7.85,-18 9.23,-27.83zm13.2 -271.09c1.29,-9.21 0.81,-18.05 -1.44,-26.51 -2.26,-8.46 -6.02,-16.19 -11.3,-23.2 -5.28,-7 -11.96,-12.95 -20.06,-17.69 -8.1,-4.74 -17.23,-7.75 -27.37,-9.17l-98.58 -13.86 -18.78 133.6 97.21 13.66c10.44,1.47 20.35,1.14 29.56,-0.86 9.21,-1.99 17.23,-5.57 24.21,-10.69 6.99,-5.13 12.89,-11.5 17.57,-19.14 4.68,-7.64 7.62,-16.31 9,-26.14zm265.43 -160.39c0.23,-6.51 2.27,-11.71 5.97,-15.46 3.7,-3.75 8.72,-5.44 15.23,-5.21l308.71 10.78c27.27,0.95 52.82,6.96 76.64,18.19 23.81,11.23 44.55,26.23 62.04,44.99 17.5,18.77 31.01,40.49 40.7,65.19 9.69,24.7 14.04,51.08 13.07,78.97 -0.81,23.25 -5.13,44.66 -13.11,64.4 -7.98,19.73 -18.99,37.35 -32.87,52.69 21.6,21.23 38.42,46.18 50.45,74.84 12.03,28.66 17.5,58.8 16.39,90.41 -0.98,28.21 -7.34,54.67 -19.07,79.55 -11.73,24.88 -27.07,46.53 -46.18,64.95 -19.11,18.42 -41.18,32.85 -66.21,43.15 -25.03,10.3 -51.26,14.97 -78.53,14.02l-336.14 -11.74c-6.2,-0.22 -11.1,-2.1 -14.7,-5.48 -3.61,-3.39 -5.3,-8.41 -5.06,-15.23l22.66 -649.03zm358.9 466.39c0.32,-9.3 -1.06,-18.66 -4.3,-28.08 -3.24,-9.42 -7.91,-17.97 -14.01,-25.47 -6.1,-7.5 -13.49,-13.66 -22.16,-18.62 -8.67,-4.96 -18.2,-7.62 -28.42,-7.98l-122.74 -4.29 -5.42 155.28 122.74 4.29c10.23,0.36 19.76,-1.48 28.59,-5.52 8.83,-4.04 16.63,-9.66 23.39,-16.72 6.76,-7.06 12.16,-15.09 16.05,-24.27 3.89,-9.18 5.93,-18.73 6.28,-28.64zm-15.21 -270.98c0.33,-9.3 -1.08,-18.04 -4.2,-26.21 -3.13,-8.18 -7.68,-15.47 -13.66,-21.89 -5.98,-6.42 -13.25,-11.63 -21.8,-15.5 -8.55,-3.87 -17.95,-5.9 -28.17,-6.26l-99.5 -3.48 -4.71 134.83 98.1 3.42c10.54,0.37 20.36,-0.99 29.31,-3.94 8.95,-2.95 16.55,-7.34 22.96,-13.17 6.41,-5.82 11.61,-12.78 15.47,-20.87 3.85,-8.09 5.87,-17.02 6.21,-26.94zm208.91 142.31c-4.57,-32.55 -4.83,-64.46 -0.75,-95.57 4.08,-31.11 11.96,-60.87 23.62,-89.29 11.67,-28.42 26.75,-54.81 45.07,-79.31 18.32,-24.5 39.38,-46.25 63.35,-65.12 23.97,-18.87 50.41,-34.65 79.17,-47.3 28.75,-12.66 59.35,-21.18 91.9,-25.76 32.25,-4.53 64,-4.77 95.28,-0.55 31.29,4.22 61.05,12.09 89.29,23.62 28.24,11.53 54.63,26.62 79.15,45.09 24.52,18.48 46.29,39.69 65.18,63.81 18.89,24.13 34.67,50.56 47.32,79.32 12.66,28.76 21.2,59.5 25.78,92.05 5.83,41.46 4.77,81.85 -3.17,121.18 -7.94,39.33 -21.49,75.52 -40.77,108.77 -19.29,33.24 -43.65,62.66 -73.09,88.26 -29.44,25.59 -62.8,45.63 -99.94,59.93l17.55 124.85c1.9,13.51 -4.52,21.31 -19.26,23.38l-135.9 19.1c-13.51,1.9 -21.22,-3.9 -23.12,-17.42l-17.68 -125.76c-39.38,-3.87 -76.53,-14.15 -111.42,-30.7 -34.9,-16.55 -65.95,-38.02 -93.32,-64.55 -27.37,-26.53 -50.2,-57.46 -68.32,-92.81 -18.12,-35.35 -30.1,-73.75 -35.92,-115.21zm177.76 -25.45c3.58,25.49 11.23,48.69 22.93,69.59 11.7,20.9 26.53,38.39 44.36,52.64 17.82,14.25 37.9,24.59 60.41,30.97 22.51,6.39 46.52,7.87 72.01,4.29 25.49,-3.58 48.32,-11.64 68.35,-24.01 20.03,-12.36 36.64,-27.85 49.84,-46.46 13.2,-18.61 22.48,-39.49 27.97,-62.81 5.49,-23.32 6.45,-47.73 2.86,-73.22 -3.54,-25.18 -11.18,-48.38 -22.91,-69.44 -11.73,-21.06 -26.42,-38.72 -44.27,-53.13 -17.84,-14.4 -38.1,-24.87 -60.79,-31.39 -22.68,-6.52 -46.85,-7.98 -72.34,-4.4 -25.49,3.58 -48.17,11.62 -68.02,24.12 -19.85,12.5 -36.29,28.12 -49.47,46.88 -13.18,18.76 -22.59,39.82 -28.06,63.29 -5.47,23.47 -6.43,47.88 -2.88,73.06zm974.61 -67.41c6.4,2.39 14.72,5.6 24.86,9.81 10.14,4.22 21.31,8.08 33.61,11.39 18.39,4.82 35.87,7.49 52.45,8.01 16.58,0.52 32.94,-1.99 49.06,-7.55 14.95,-5.15 26.96,-11.25 35.91,-18.11 8.96,-6.85 15.36,-13.98 19.31,-21.57 3.95,-7.59 5.98,-15.51 5.95,-23.7 -0.03,-8.19 -1.54,-16.36 -4.36,-24.57 -3.13,-9.09 -9.33,-16.14 -18.69,-20.95 -9.37,-4.81 -20.04,-8.19 -31.93,-10.33 -11.89,-2.14 -23.96,-3.39 -36.18,-3.61 -12.21,-0.23 -22.71,-0.22 -31.53,-0.13 -39.43,-0.2 -74.81,-2.94 -106.1,-8.07 -31.29,-5.14 -58.73,-13.4 -82.34,-24.79 -23.6,-11.39 -43.41,-26.05 -59.43,-43.99 -16.02,-17.94 -28.44,-39.73 -37.33,-65.54 -9.39,-27.27 -12.35,-53.97 -9.03,-80.04 3.32,-26.07 12.44,-50.54 27.38,-73.39 14.93,-22.85 35.17,-43.6 60.93,-62.15 25.76,-18.55 56.4,-33.86 91.89,-46.07 26.69,-9.19 53.35,-15.09 79.91,-17.51 26.55,-2.42 53.93,-1.02 82.23,4 11.99,2.43 23.59,5.16 34.7,8.38 11.12,3.23 21.01,6.71 29.77,10.25 8.76,3.54 16.11,7.24 21.88,11.16 5.78,3.92 9.25,7.8 10.56,11.62 1.31,3.81 1.64,7.63 0.85,11.51 -0.79,3.88 -2.46,8.56 -4.86,13.98l-42.61 94.87c-3.27,6.7 -7.4,10.91 -12.38,12.63 -4.11,1.41 -8.17,1.5 -12.36,0.32 -4.18,-1.18 -9,-2.81 -14.32,-4.91l-5.17 -2.15c-7.58,-2.97 -15.8,-5.88 -24.8,-8.68 -9,-2.81 -18.44,-4.97 -28.12,-6.39 -9.67,-1.42 -19.54,-1.96 -29.58,-1.62 -10.05,0.34 -19.74,2.2 -29.12,5.44 -9.68,3.33 -18.52,7.19 -26.46,11.74 -7.95,4.54 -14.52,9.75 -19.76,15.5 -5.24,5.74 -8.81,12.05 -10.65,19.08 -1.84,7.03 -1.32,14.73 1.5,22.94 2.82,8.21 7.3,14.54 13.48,19.14 6.18,4.6 14.25,8.05 24.23,10.35 9.98,2.31 21.91,3.61 35.64,3.97 13.73,0.35 29.53,0.49 47.47,0.22 34.61,-0.44 67.04,0.37 97.17,2.62 30.13,2.25 57.3,7.82 81.67,16.65 24.36,8.83 45.68,22.16 63.75,39.88 18.07,17.72 32.29,41.85 42.79,72.35 11.1,32.26 14.56,63.7 10.4,94.49 -4.16,30.79 -14.47,59.43 -31.13,85.83 -16.66,26.4 -38.89,49.96 -66.49,70.78 -27.6,20.82 -59.26,37.46 -95.04,49.78 -33.72,11.61 -68.93,17.01 -105.62,16.2 -36.69,-0.81 -72.6,-6.49 -107.71,-17.03 -14.66,-4.47 -27.36,-9.44 -38.25,-14.87 -10.89,-5.44 -19.61,-9.81 -26.02,-13.18l-1.77 -0.86c-0.49,-0.48 -0.94,-0.82 -1.29,-0.87 -0.34,-0.05 -0.69,-0.09 -1.08,-0.28 -0.49,-0.49 -0.94,-0.82 -1.29,-0.87 -0.34,-0.05 -0.69,-0.09 -1.08,-0.28 -9.27,-5.01 -14.66,-9.71 -16.18,-14.11 -1.71,-4.98 -0.26,-11.72 4.36,-20.2l51.1 -98.78c4.64,-6.52 8.87,-10.44 12.68,-11.75 2.64,-0.91 5.73,-0.99 9.27,-0.24 3.54,0.75 7.97,2.18 13.29,4.28zm595.85 -285.07c10.78,20.26 22.75,35.85 35.86,46.97 13.11,11.12 26.62,18.69 40.53,22.71 13.91,4.02 28.08,4.92 42.45,2.54 14.37,-2.37 28.06,-7.01 41.2,-14 13.69,-7.28 25.39,-16.66 35.03,-27.93 9.64,-11.27 16.53,-24.07 20.68,-38.39 4.15,-14.32 5.22,-29.82 3.13,-46.62 -2.09,-16.8 -8,-34.21 -17.61,-52.28l-185.2 -348.32c-2.62,-4.93 -3.1,-10.12 -1.57,-15.5 1.53,-5.38 5.1,-9.56 10.86,-12.62l119.94 -63.77c6.3,-3.35 12.17,-4.19 17.7,-2.39 5.52,1.8 9.56,5.1 12.04,9.76l184.11 346.27c25.48,47.92 39.9,91.89 43.12,131.97 3.23,40.09 -1.9,76.36 -15.17,108.87 -13.27,32.52 -33.22,61.39 -59.98,86.69 -26.77,25.29 -57.44,47.22 -91.94,65.57 -34.51,18.34 -69.9,31.37 -106.13,39.22 -36.22,7.84 -71.6,8.04 -106.12,0.58 -34.52,-7.46 -67.39,-23.7 -98.75,-48.65 -31.36,-24.95 -59.59,-60.87 -84.63,-107.97l-184.11 -346.27c-2.47,-4.66 -3.09,-9.77 -1.91,-15.14 1.18,-5.37 4.07,-9.19 8.73,-11.67l123.22 -65.52c4.11,-2.18 9.36,-2.87 15.7,-1.85 6.34,1.02 10.86,4.24 13.63,9.44l185.2 348.32zm243.5 -569.97c-3.55,-5.46 -4.99,-10.81 -4.24,-15.92 0.75,-5.11 4.03,-9.46 9.75,-13.17l249.31 -161.9c17.95,-11.66 36.46,-20.16 55.53,-25.52 19.08,-5.37 38.04,-8.06 56.96,-7.96 18.92,0.1 37.64,2.73 56.16,7.9 18.52,5.17 36.15,12.39 52.69,21.62 16.54,9.23 31.67,20.3 45.62,33.24 13.95,12.94 26.12,27.41 36.43,43.28 15.2,23.41 25.91,49 31.98,76.86 6.07,27.86 6.9,55.61 2.61,83.17 -4.29,27.56 -13.89,53.77 -28.73,78.75 -14.84,24.98 -35.4,46.29 -61.76,63.77l-118.21 76.77 120.6 185.71c7.26,11.19 4.91,20.66 -7.05,28.43l-115.88 75.25c-5.2,3.38 -10.29,4.65 -15.19,3.95 -4.89,-0.71 -9.16,-3.85 -12.87,-9.58l-353.7 -544.65zm404.76 -19.9c-5.07,-7.8 -11.44,-14.76 -19.23,-20.79 -7.8,-6.03 -16.39,-10.43 -25.56,-13.17 -9.18,-2.74 -18.63,-3.62 -28.57,-2.71 -9.95,0.91 -19.67,4.45 -29.03,10.53l-82.71 53.71 84.62 130.31 82.71 -53.71c9.36,-6.08 16.55,-13.52 21.64,-22.19 5.1,-8.67 8.34,-17.62 9.53,-26.9 1.19,-9.28 0.61,-18.7 -1.73,-28.28 -2.33,-9.58 -6.27,-18.48 -11.68,-26.81zm28.02 -259.33c-4.36,-4.84 -6.62,-9.9 -6.68,-15.06 -0.06,-5.16 2.5,-9.97 7.57,-14.54l220.91 -198.91c15.9,-14.32 32.86,-25.62 50.86,-33.9 18,-8.28 36.31,-13.91 55.01,-16.77 18.71,-2.86 37.61,-3.19 56.71,-0.98 19.1,2.21 37.65,6.58 55.42,13.11 17.77,6.53 34.46,15.09 50.26,25.7 15.8,10.6 30.09,22.98 42.75,37.05 18.68,20.74 33.25,44.34 43.61,70.91 10.36,26.57 15.52,53.85 15.59,81.74 0.07,27.89 -5.31,55.28 -16.06,82.28 -10.75,27 -27.72,51.25 -51.02,72.65l-104.75 94.31 148.17 164.56c8.92,9.91 8.08,19.64 -2.52,29.19l-102.68 92.45c-4.61,4.15 -9.44,6.2 -14.38,6.27 -4.94,0.07 -9.65,-2.37 -14.21,-7.44l-434.55 -482.62zm396.66 -82.97c-6.23,-6.92 -13.6,-12.79 -22.25,-17.53 -8.65,-4.74 -17.82,-7.74 -27.31,-9.01 -9.48,-1.27 -18.96,-0.66 -28.64,1.79 -9.68,2.46 -18.73,7.47 -27.02,14.94l-73.29 65.99 103.97 115.47 73.29 -65.99c8.3,-7.47 14.23,-15.94 17.9,-25.31 3.68,-9.36 5.48,-18.71 5.21,-28.05 -0.28,-9.35 -2.32,-18.57 -6.13,-27.66 -3.81,-9.09 -9.09,-17.28 -15.73,-24.65zm27.45 -285.09c-4.08,-3.81 -6.33,-8.45 -6.74,-13.92 -0.41,-5.47 1.61,-10.59 6.05,-15.36l93.91 -100.71c3.6,-3.85 8.23,-6.1 13.92,-6.74 5.68,-0.64 10.9,1.04 15.65,5.05l370.17 345.19 174.5 -187.13c3.81,-4.08 8.44,-6.33 13.92,-6.74 5.47,-0.41 10.59,1.61 15.35,6.05l89.48 83.44c3.86,3.6 6.21,8.12 6.95,13.69 0.74,5.57 -1.04,10.9 -5.26,15.87l-283.32 303.83c-9.31,9.98 -18.95,10.32 -28.93,1.01l-475.64 -443.54zm341.34 -382.21c-4.4,-3.44 -7.14,-7.74 -8.21,-12.91 -1.08,-5.17 0.48,-10.44 4.69,-15.82l84.2 -107.78c2.86,-3.67 7.38,-6.43 13.56,-8.3 6.18,-1.86 11.71,-0.88 16.6,2.93l512.12 400.11c10.75,8.4 11.45,18.59 2.1,30.57l-84.2 107.78c-8.4,10.75 -17.98,11.93 -28.73,3.53l-512.12 -400.11zm163.72 -196.27c-5.52,-3.45 -9.01,-7.82 -10.41,-12.9 -1.4,-5.08 -0.35,-10.27 3.11,-15.8l244.79 -391.76c3.62,-5.79 8.12,-9.19 13.51,-10.21 5.39,-1.02 10.98,0.28 16.77,3.89l97.84 61.14c4.47,2.8 7.69,7 9.8,12.71 2.1,5.7 1.34,11.62 -2.45,17.67l-159.75 255.65 97.45 60.89 123.26 -197.26c3.12,-5 6.94,-8.47 11.36,-10.27 4.42,-1.81 9.35,-0.92 14.88,2.53l85.22 53.25c3.68,2.3 6.33,5.97 7.94,11 1.61,5.03 0.69,10.31 -2.76,15.83l-123.51 197.66 100.6 62.86 165.66 -265.12c7.4,-11.84 17.14,-13.97 29.24,-6.41l99.42 62.12c2.63,1.64 4.34,4.17 5.13,7.59 6.71,5.65 7.02,13.34 0.94,23.08l-249.48 399.25c-3.29,5.26 -7.36,8.56 -12.1,9.99 -4.73,1.43 -9.93,0.38 -15.71,-3.23l-550.74 -344.15zm738.31 -355.27c6.21,-2.83 14.36,-6.45 24.52,-10.64 10.15,-4.19 20.78,-9.36 31.82,-15.71 16.41,-9.59 30.66,-20.07 42.76,-31.42 12.09,-11.35 21.88,-24.7 29.35,-40.03 6.94,-14.22 11.11,-27.02 12.59,-38.2 1.48,-11.18 0.97,-20.75 -1.6,-28.91 -2.58,-8.16 -6.74,-15.19 -12.55,-20.96 -5.81,-5.77 -12.66,-10.48 -20.46,-14.29 -8.64,-4.22 -18.01,-4.82 -28.03,-1.6 -10.03,3.22 -19.96,8.38 -29.88,15.27 -9.92,6.9 -19.34,14.55 -28.14,23.03 -8.79,8.48 -16.21,15.9 -22.39,22.21 -28.02,27.74 -54.98,50.82 -80.74,69.32 -25.75,18.5 -51,32.06 -75.75,40.7 -24.74,8.63 -49.12,12.27 -73.13,10.91 -24.01,-1.36 -48.21,-7.99 -72.74,-19.95 -25.92,-12.64 -46.89,-29.43 -62.98,-50.22 -16.09,-20.78 -26.93,-44.53 -32.54,-71.25 -5.6,-26.72 -5.96,-55.7 -0.86,-87.03 5.1,-31.33 15.95,-63.82 32.4,-97.55 12.37,-25.37 27.06,-48.4 44.12,-68.89 17.07,-20.49 37.41,-38.86 60.97,-55.32 10.2,-6.76 20.33,-13.03 30.47,-18.61 10.14,-5.58 19.59,-10.11 28.3,-13.8 8.7,-3.69 16.51,-6.27 23.37,-7.58 6.85,-1.32 12.06,-1.02 15.68,0.74 3.62,1.77 6.56,4.24 8.74,7.54 2.18,3.31 4.31,7.79 6.44,13.32l36.95 97.21c2.43,7.05 2.49,12.94 0.18,17.69 -1.91,3.9 -4.72,6.84 -8.51,8.96 -3.79,2.12 -8.35,4.38 -13.59,6.65l-5.18 2.13c-7.46,3.27 -15.32,7.02 -23.67,11.4 -8.35,4.38 -16.55,9.52 -24.4,15.36 -7.85,5.83 -15.21,12.43 -22.07,19.77 -6.86,7.35 -12.4,15.52 -16.75,24.44 -4.49,9.2 -8,18.18 -10.41,27.01 -2.41,8.83 -3.37,17.16 -3.01,24.92 0.35,7.77 2.29,14.75 5.96,21.03 3.67,6.27 9.48,11.35 17.28,15.15 7.81,3.81 15.45,5.12 23.07,4 7.62,-1.11 15.77,-4.38 24.45,-9.81 8.68,-5.42 18.04,-12.94 28.01,-22.4 9.96,-9.46 21.23,-20.53 33.72,-33.41 24.16,-24.79 47.66,-47.15 70.56,-66.86 22.9,-19.71 46.05,-34.99 69.53,-45.97 23.47,-10.98 47.96,-16.63 73.28,-16.88 25.31,-0.25 52.42,6.76 81.42,20.9 30.66,14.95 55.34,34.76 74.17,59.47 18.83,24.71 31.79,52.26 38.68,82.7 6.89,30.45 7.83,62.82 3.04,97.07 -4.8,34.24 -15.42,68.39 -32,102.4 -15.63,32.05 -36.71,60.77 -63.23,86.14 -26.52,25.37 -55.92,46.74 -88.21,64.12 -13.52,7.21 -26.02,12.67 -37.56,16.53 -11.54,3.86 -20.81,6.93 -27.72,9.08l-1.87 0.64c-0.69,0.01 -1.25,0.08 -1.52,0.29 -0.27,0.21 -0.55,0.42 -0.96,0.56 -0.69,0.01 -1.25,0.08 -1.52,0.29 -0.28,0.21 -0.55,0.42 -0.97,0.56 -10.1,3.01 -17.23,3.5 -21.41,1.46 -4.74,-2.31 -8.47,-8.1 -11.2,-17.37l-33.71 -105.99c-1.32,-7.89 -1.11,-13.65 0.66,-17.27 1.22,-2.51 3.35,-4.75 6.38,-6.72 3.03,-1.97 7.17,-4.1 12.42,-6.37zm-8549.47 -136.88c8.29,-4.22 15.88,-9.83 22.69,-16.96 6.81,-7.12 12.09,-15.21 15.77,-24.04 3.68,-8.84 5.55,-18.14 5.68,-28.13 0.13,-9.99 -2.37,-20.02 -7.44,-29.97l-44.78 -87.87 -138.44 70.54 44.77 87.87c5.07,9.95 11.72,17.87 19.81,23.85 8.09,5.97 16.65,10.14 25.75,12.29 9.1,2.15 18.54,2.56 28.3,1.24 9.77,-1.32 19.04,-4.31 27.88,-8.81zm293.78 108.24c5.52,-3.45 10.9,-4.8 15.99,-3.96 5.1,0.84 9.38,4.19 13,9.98l159.25 254.86c16.93,27.09 27.79,55.59 32.46,85.59 4.66,30 3.76,59.27 -2.59,87.74 -6.35,28.47 -17.89,55.06 -34.84,79.73 -16.95,24.67 -38.68,45.2 -64.98,61.64 -17.89,11.17 -36.33,19.41 -55.55,24.65 -19.22,5.24 -38.61,7.85 -58.11,7.97 -19.49,0.11 -38.66,-2.17 -57.58,-6.99 -18.92,-4.82 -37,-11.81 -54.03,-20.92l-127.59 220.71c-2.53,4.14 -5.4,9.22 -8.58,15.24 -3.19,6.02 -6.62,10.17 -10.31,12.47 -4.21,2.63 -8.19,3.29 -12.15,1.92 -3.96,-1.36 -7.53,-4.44 -10.48,-9.18l-84.56 -135.32c-2.79,-4.47 -3.94,-9.24 -3.53,-14.44 0.41,-5.19 2.49,-9.78 6.3,-13.63l120.39 -208.53 -39.94 -63.91 -177.93 111.18c-11.31,7.07 -20.74,4.55 -28.3,-7.55l-73.22 -117.17c-3.29,-5.26 -4.47,-10.37 -3.68,-15.25 0.79,-4.88 4.01,-9.09 9.8,-12.7l550.74 -344.15zm17.86 418.36c7.89,-4.93 14.88,-11.31 20.96,-19.13 6.09,-7.82 10.77,-16.42 14.06,-25.79 3.29,-9.37 4.87,-19.13 4.74,-29.29 -0.13,-10.16 -2.33,-20.12 -6.61,-29.88 -4.08,-7.7 -7.82,-14.86 -11.45,-21.55 -3.64,-6.69 -7.94,-13.87 -12.71,-21.5l-34.02 -54.44 -144.79 90.48 45.36 72.59c2.96,4.74 5.72,8.86 8.28,12.38 2.56,3.52 5.51,7.35 8.83,11.49 6.81,8.54 14.74,15.11 23.69,19.76 8.94,4.65 18.2,7.47 27.76,8.44 9.57,0.97 19.18,0.26 28.85,-2.12 9.67,-2.38 18.64,-6.16 27.06,-11.42zm276.12 38.36c4.92,-4.27 10.11,-6.33 15.38,-6.18 5.27,0.15 9.93,2.67 14.2,7.59l303.07 348.64c4.48,5.15 6.41,10.45 5.81,15.9 -0.6,5.45 -3.48,10.42 -8.63,14.9l-87.07 75.69c-3.98,3.46 -8.95,5.31 -15.02,5.66 -6.07,0.34 -11.5,-2.12 -16.18,-7.51l-197.77 -227.51 -86.72 75.39 152.6 175.54c3.87,4.45 6.07,9.11 6.51,13.87 0.44,4.76 -1.85,9.21 -6.77,13.49l-75.83 65.93c-3.28,2.85 -7.55,4.31 -12.84,4.38 -5.28,0.07 -10.06,-2.35 -14.33,-7.27l-152.91 -175.9 -89.53 77.83 205.1 235.93c9.16,10.54 8.35,20.48 -2.42,29.84l-88.48 76.91c-2.34,2.03 -5.26,2.93 -8.76,2.68 -7.37,4.76 -14.82,2.81 -22.35,-5.85l-308.86 -355.31c-4.07,-4.68 -6.04,-9.55 -6.02,-14.49 0.02,-4.94 2.54,-9.6 7.69,-14.08l490.13 -426.06zm383.28 444.25c4.2,-3.73 9.03,-5.85 14.49,-6.36 5.46,-0.51 10.73,1.52 15.8,6.09l119.62 107.71c8.53,7.68 10.11,17.03 4.77,28.08l-188.61 398.58 377.37 -228.62c11.11,-5.85 20.93,-4.94 29.46,2.74l118.23 106.46c4.15,3.74 6.71,8.54 7.46,14.43 0.75,5.89 -0.73,11.24 -4.21,16.03 -64.98,88.39 -129.11,176.3 -192.6,263.73 -63.49,87.43 -127.84,175.35 -192.82,263.75l-1.55 1.73c-8.09,8.99 -17.21,8.92 -27.35,-0.21l-97.84 -88.1c-10.6,-9.54 -11.57,-19.59 -2.9,-30.15l210.55 -294.32 -319.97 198.93c-2.54,1.89 -6.64,3.2 -12.43,3.84 -5.79,0.63 -10.12,-0.35 -12.89,-2.84l-90.92 -81.87c-2.77,-2.49 -4.19,-6.7 -4.5,-12.61 -0.31,-5.91 0.45,-10.24 2.51,-12.98l163.77 -338.31 -270.08 239.46c-9.59,9.73 -19.8,9.71 -30.64,-0.04l-97.84 -88.1c-9.91,-8.92 -10.3,-18.46 -1.17,-28.6l484.3 -438.45zm612.18 501.86c3.28,-4.52 7.49,-7.41 12.62,-8.66 5.13,-1.25 10.45,0.12 15.97,4.13l110.65 80.39c3.76,2.74 6.69,7.16 8.76,13.27 2.08,6.11 1.29,11.67 -2.35,16.69l-381.99 525.77c-8.02,11.04 -18.18,12.09 -30.47,3.16l-110.65 -80.39c-11.04,-8.02 -12.55,-17.55 -4.53,-28.59l381.99 -525.77zm169.44 577.17c-11.82,19.67 -19.01,37.97 -21.79,54.93 -2.77,16.96 -2.31,32.44 1.41,46.44 3.71,13.99 10.25,26.6 19.68,37.69 9.43,11.1 20.46,20.44 33.22,28.11 13.29,7.98 27.36,13.18 41.98,15.64 14.62,2.45 29.14,1.77 43.56,-2.05 14.42,-3.82 28.25,-10.88 41.58,-21.33 13.33,-10.44 25.2,-24.48 35.74,-42.02l203.18 -338.15c2.88,-4.79 7.08,-7.87 12.48,-9.33 5.4,-1.46 10.82,-0.55 16.4,2.8l116.44 69.96c6.12,3.67 9.86,8.28 11.16,13.94 1.3,5.67 0.55,10.82 -2.16,15.34l-201.99 336.15c-27.95,46.52 -58.21,81.52 -90.91,104.94 -32.7,23.41 -66.43,37.69 -101.14,43.07 -34.71,5.38 -69.73,3.15 -105.2,-6.77 -35.47,-9.92 -70.06,-24.91 -103.56,-45.04 -33.5,-20.12 -62.89,-43.76 -88.27,-70.77 -25.38,-27.01 -43.76,-57.23 -55.15,-90.67 -11.39,-33.43 -14.4,-69.98 -9.16,-109.7 5.24,-39.73 21.48,-82.43 48.96,-128.15l201.98 -336.15c2.72,-4.52 6.79,-7.68 12,-9.43 5.21,-1.75 9.97,-1.24 14.49,1.47l119.63 71.88c3.99,2.4 7.28,6.55 9.67,12.5 2.39,5.96 1.96,11.49 -1.07,16.54l-203.18 338.15zm604.96 -122.13c2.49,-5.03 6.18,-8.81 11.05,-11.33 4.88,-2.51 10.52,-2.61 16.93,-0.27l151.25 55.05c10.78,3.92 15.76,12 14.93,24.25l-25.57 440.21 264.25 -353.33c8.11,-9.59 17.56,-12.43 28.34,-8.5l149.51 54.42c5.24,1.91 9.42,5.4 12.32,10.59 2.9,5.18 3.53,10.69 2.1,16.44 -27.14,106.3 -53.67,211.83 -79.78,316.68 -26.12,104.85 -52.84,210.48 -79.98,316.77l-0.79 2.19c-4.14,11.37 -12.62,14.72 -25.44,10.05l-123.71 -45.03c-13.41,-4.88 -18.07,-13.84 -13.98,-26.87l84.96 -351.76 -222.15 304.3c-1.64,2.7 -4.96,5.46 -10.08,8.21 -5.13,2.75 -9.51,3.47 -13.01,2.19l-114.97 -41.85c-3.49,-1.27 -6.4,-4.64 -8.9,-10.01 -2.5,-5.37 -3.42,-9.66 -2.54,-12.97l25.11 -375.03 -160.71 323.2c-5.25,12.61 -14.72,16.43 -28.42,11.44l-123.72 -45.03c-12.53,-4.56 -16.46,-13.25 -11.8,-26.07l284.79 -587.95zm-873.87 -6795.06c-725.8,725.75 -1096.78,1598.65 -1113.06,2618.41l-1982.62 0c8.82,-758.75 160.5,-1485.97 454.75,-2181.83 292.78,-692.05 705.67,-1304.93 1239.11,-1838.39 533.46,-533.44 1146.34,-946.33 1838.39,-1239.11 717.18,-303.32 1467.78,-455 2251.94,-455 784.16,0 1534.77,151.68 2251.94,455 692.06,292.78 1304.93,705.66 1838.39,1239.11 533.44,533.46 946.33,1146.34 1239.11,1838.39 294.25,695.86 445.94,1423.08 454.51,2181.83l-1982.38 0c-16.28,-1019.76 -387.26,-1892.66 -1113.08,-2618.41 -742.28,-742.52 -1638.56,-1113.81 -2688.5,-1113.81 -1049.95,0 -1946.23,371.3 -2688.52,1113.81zm2688.52 -973.39c1011.18,0 1874.23,357.65 2589.25,1072.67 715.02,715.02 1072.67,1578.06 1072.67,2589.25 0,1011.18 -357.65,1874.23 -1072.67,2589.25 -715.02,715.02 -1578.06,1072.67 -2589.25,1072.67 -1011.18,0 -1874.23,-357.65 -2589.25,-1072.67 -715.02,-715.02 -1072.67,-1578.06 -1072.67,-2589.25 0,-1011.18 357.65,-1874.23 1072.67,-2589.25 715.02,-715.02 1578.06,-1072.67 2589.25,-1072.67z"/>
   <path class="fil3" d="M4564.45 2724.15c-418.18,176.8 -788.56,426.61 -1110.98,749.03 -322.44,322.44 -572.23,692.82 -749.05,1110.98 -183.05,433.04 -274.84,886.56 -274.84,1360.45 0,474.13 91.8,927.6 274.84,1360.43 176.82,418.18 426.61,788.54 749.05,1110.98 154.57,154.6 320.09,292.38 496.64,413.5l-7.1 -25.11 -2.09 -7.57 -17.27 -71.43 -1.54 -8.1 -14.67 -72.18 -1.54 -7.84 -3.13 -20.14c-121.65,-92.33 -237.21,-193.29 -347.07,-303.1 -309.38,-309.38 -548.68,-664.27 -718.11,-1065.24 -175.49,-415.04 -263.4,-849.67 -263.4,-1304.2 0,-454.52 87.91,-889.18 263.4,-1304.2 169.44,-400.7 408.73,-755.88 718.11,-1065 309.09,-309.11 664.01,-548.66 1064.98,-718.11 364.82,-154.31 744.82,-240.62 1140.23,-259.43l95.21 -147.76c-449.04,8.37 -879.81,99.9 -1291.67,274.04zm0 0z"/>
   <path class="fil3" d="M7285.31 2724.15c418.18,176.8 788.56,426.61 1110.98,749.03 322.44,322.44 572.23,692.82 749.05,1110.98 183.05,433.04 274.84,886.56 274.84,1360.45 0,474.13 -91.8,927.6 -274.84,1360.43 -176.82,418.18 -426.61,788.54 -749.05,1110.98 -167.1,167.39 -347.26,315.13 -540.29,443.01l11.52 -30.86 6.23 -18.01 23.57 -69.82 2.07 -6.3 21.43 -70.37 1.88 -6.49 7.29 -26.99c127.61,-95.67 248.99,-201.38 364.08,-316.14 309.38,-309.38 548.68,-664.27 718.11,-1065.24 175.49,-415.04 263.4,-849.67 263.4,-1304.2 0,-454.52 -87.91,-889.18 -263.4,-1304.2 -169.44,-400.7 -408.73,-755.88 -718.11,-1065 -309.09,-309.11 -664.01,-548.66 -1064.98,-718.11 -127.34,-53.9 -256.76,-99.69 -388.05,-136.78l-81.61 -171.33c178.62,43.93 353.83,102.24 525.89,174.96zm0 0z"/>
  </g>
 </g>
</svg>
